<svg xmlns="http://www.w3.org/2000/svg" version="1.1" xmlns:xlink="http://www.w3.org/1999/xlink" xmlns:svgjs="http://svgjs.dev/svgjs" width="1500" height="337" viewBox="0 0 1500 337"><g transform="matrix(1,0,0,1,-0.9089750772874368,-0.8001902910738465)"><svg viewBox="0 0 396 89" data-background-color="#000000" preserveAspectRatio="xMidYMid meet" height="337" width="1500" xmlns="http://www.w3.org/2000/svg" xmlns:xlink="http://www.w3.org/1999/xlink"><g id="tight-bounds" transform="matrix(1,0,0,1,0.23996942040389513,0.21133939535889112)"><svg viewBox="0 0 395.52 88.57706035436206" height="88.57706035436206" width="395.52"><rect width="395.52006115919215" height="88.57733438533674" fill="url(#8bc20a81-c08c-4de0-bf83-1db4656e6e2c)" mask="url(#b1e626b9-eb8c-4124-afb8-cbe544e0986f)" data-fill-palette-color="tertiary"></rect><g><svg viewBox="0 0 517.3645842011443 115.86426476535749" height="88.57706035436206" width="395.52"><g transform="matrix(1,0,0,1,121.84458420114437,0)"><svg viewBox="0 0 395.52 115.86426476535749" height="115.86426476535749" width="395.52"><g id="textblocktransform"><svg viewBox="0 0 395.52 115.86426476535749" height="115.86426476535749" width="395.52" id="textblock"><g><svg viewBox="0 0 395.52 115.86426476535749" height="115.86426476535749" width="395.52"><path d="M394.594 24.851C392.735 12.824 387.435 9.481 387.435 9.481 371.165-2.907 350.86-0.237 332.619 1.543 300.414 1.615 268.339 4.261 236.208 5.68 168.767 5.897 100.749 2.337 33.643 11.116 27.339 13.81-6.54 11.645 1.121 26.39 3.129 32.524 10.456 39.331 10.232 44.959 11.236 45.945 12.631 43.684 13.226 45.104 15.309 48.928 18.711 47.124 21.501 49.385 17.614 55.422 20.403 60.45 23.062 65.717 18.377 67.088 12.371 66.439 9.675 70.985 9.396 74.28 7.89 73.655 6.235 73.511 5.026 73.414 2.59 73.775 2.999 74.809 4.394 78.345-1.594 80.39 2.162 83.854-0.422 87.606 3.948 90.853 3.353 94.918 3.278 95.736 3.687 96.433 4.338 96.626 7.22 97.66 3.018 99.681 3.464 101.869 33.029 116.831 65.104 106.488 95.394 113.367 103.259 108.556 97.346 115.075 100.489 114.065 102.943 112.886 104.728 117.769 107.499 115.003 107.927 114.209 107.276 112.333 108.8 112.693 109.6 112.886 110.307 112.838 110.418 111.731 110.586 110.072 109.117 111.106 108.726 110.24 112.947 105.862 111.906 116.277 115.866 115.844 115.68 114.57 114.528 112.742 116.889 112.982 119.232 111.154 119.306 109.639 121.389 113.752 121.463 114.642 121.835 115.267 122.43 115.7 128.938 111.226 135.409 117.288 142.233 115.267 146.417 113.054 150.433 116.47 154.672 115.628 156.16 114.954 157.666 113.752 159.098 115.772 176.632 116.205 195.319 114.401 211.943 115.844 256.364 113.15 303.836 116.951 350.674 113.391 361.719 112.02 373.192 110.072 383.958 108.508 383.958 108.508 392.679 104.227 392.679 84.984S394.538 68.147 394.817 52.825C395.096 37.503 396.398 36.877 394.538 24.851Z" opacity="1" fill="url(#8bc20a81-c08c-4de0-bf83-1db4656e6e2c)" data-fill-palette-color="tertiary"></path><g transform="matrix(1,0,0,1,55.76832,26.230666666666664)"><svg width="283.98335999999995" viewBox="1.17 -35.55 161.61 36.089999999999996" height="63.40293143202416" data-palette-color="#000000"><path d="M29.61 0L1.17 0 1.17-4.64 4.91-5.4 4.91-30.13 1.17-30.88 1.17-35.55 29.17-35.55 29.17-25.61 23.19-25.61 22.92-29.52 12.77-29.52 12.77-21.39 24.44-21.39 24.44-15.36 12.77-15.36 12.77-6.03 23.46-6.03 23.73-10.08 29.61-10.08 29.61 0ZM46.65 0L33.03 0 33.03-4.64 36.28-5.4 36.28-21 32.54-21.75 32.54-26.42 43.65-26.42 43.94-22.68Q45.26-24.68 47.2-25.79 49.14-26.9 51.58-26.9L51.58-26.9Q55.42-26.9 57.6-24.39 59.79-21.88 59.79-16.46L59.79-16.46 59.79-5.4 63.03-4.64 63.03 0 49.14 0 49.14-4.64 51.93-5.4 51.93-16.46Q51.93-18.85 50.96-19.85 50-20.85 48.19-20.85L48.19-20.85Q46.82-20.85 45.82-20.31 44.82-19.78 44.11-18.75L44.11-18.75 44.11-5.4 46.65-4.64 46.65 0ZM76.53 0.51L76.53 0.51Q73.51 0.51 70.88-0.05 68.26-0.61 66.01-1.64L66.01-1.64 65.91-9.5 71.28-9.5 72.24-5.66Q72.92-5.32 73.82-5.08 74.73-4.83 75.92-4.83L75.92-4.83Q78.14-4.83 79.02-5.51 79.9-6.18 79.9-7.18L79.9-7.18Q79.9-8.15 78.94-8.92 77.97-9.69 74.97-10.28L74.97-10.28Q70.31-11.21 68.1-13.33 65.89-15.45 65.89-18.7L65.89-18.7Q65.89-20.9 66.95-22.74 68.01-24.58 70.33-25.72 72.65-26.86 76.36-26.86L76.36-26.86Q79.34-26.86 81.94-26.31 84.54-25.76 86.25-24.9L86.25-24.9 86.27-17.31 80.9-17.31 80.17-20.75Q79.56-21.19 78.77-21.41 77.97-21.63 76.97-21.63L76.97-21.63Q75.21-21.63 74.34-20.96 73.46-20.29 73.46-19.24L73.46-19.24Q73.46-18.63 73.8-18.05 74.14-17.48 75.14-16.98 76.14-16.48 78.1-16.04L78.1-16.04Q82.81-14.99 85.07-13.17 87.32-11.35 87.32-7.84L87.32-7.84Q87.32-4.05 84.59-1.77 81.86 0.51 76.53 0.51ZM101.04 0.54L101.04 0.54Q97.14 0.54 95.06-1.57 92.99-3.69 92.99-8.3L92.99-8.3 92.99-20.95 89.52-20.95 89.52-26.42 92.99-26.42 92.99-32.91 100.77-32.91 100.77-26.42 105.39-26.42 105.39-20.95 100.77-20.95 100.77-8.3Q100.77-6.91 101.4-6.32 102.02-5.74 103.09-5.74L103.09-5.74Q103.61-5.74 104.17-5.8 104.73-5.86 105.19-5.96L105.19-5.96 105.8-0.17Q104.68 0.15 103.47 0.34 102.26 0.54 101.04 0.54ZM117.25 0.51L117.25 0.51Q113.34 0.51 110.99-1.64 108.63-3.78 108.63-7.4L108.63-7.4Q108.63-9.86 109.96-11.77 111.29-13.67 113.95-14.75 116.62-15.82 120.57-15.82L120.57-15.82 123.72-15.82 123.72-17.58Q123.72-19.31 122.71-20.47 121.69-21.63 119.62-21.63L119.62-21.63Q118.62-21.63 117.8-21.37 116.98-21.12 116.32-20.68L116.32-20.68 115.76-17.26 110.17-17.26 110.07-24.34Q112.22-25.44 114.66-26.17 117.1-26.9 120.11-26.9L120.11-26.9Q125.38-26.9 128.47-24.46 131.56-22.02 131.56-17.48L131.56-17.48 131.56-7.18Q131.56-6.62 131.57-6.09 131.58-5.57 131.68-5.08L131.68-5.08 134.46-4.64 134.46 0 125.06 0Q124.77-0.56 124.44-1.32 124.11-2.08 123.99-2.83L123.99-2.83Q122.77-1.29 121.16-0.39 119.55 0.51 117.25 0.51ZM119.5-5.15L119.5-5.15Q120.72-5.15 121.85-5.68 122.99-6.2 123.72-7.13L123.72-7.13 123.72-11.13 120.62-11.13Q118.59-11.13 117.51-10.22 116.42-9.3 116.42-7.91L116.42-7.91Q116.42-6.62 117.26-5.88 118.11-5.15 119.5-5.15ZM145.57 0.51L145.57 0.51Q141.66 0.51 139.31-1.64 136.95-3.78 136.95-7.4L136.95-7.4Q136.95-9.86 138.28-11.77 139.61-13.67 142.27-14.75 144.93-15.82 148.89-15.82L148.89-15.82 152.04-15.82 152.04-17.58Q152.04-19.31 151.03-20.47 150.01-21.63 147.94-21.63L147.94-21.63Q146.94-21.63 146.12-21.37 145.3-21.12 144.64-20.68L144.64-20.68 144.08-17.26 138.49-17.26 138.39-24.34Q140.54-25.44 142.98-26.17 145.42-26.9 148.43-26.9L148.43-26.9Q153.7-26.9 156.79-24.46 159.88-22.02 159.88-17.48L159.88-17.48 159.88-7.18Q159.88-6.62 159.89-6.09 159.9-5.57 160-5.08L160-5.08 162.78-4.64 162.78 0 153.38 0Q153.09-0.56 152.76-1.32 152.43-2.08 152.31-2.83L152.31-2.83Q151.09-1.29 149.47-0.39 147.86 0.51 145.57 0.51ZM147.81-5.15L147.81-5.15Q149.04-5.15 150.17-5.68 151.31-6.2 152.04-7.13L152.04-7.13 152.04-11.13 148.94-11.13Q146.91-11.13 145.82-10.22 144.74-9.3 144.74-7.91L144.74-7.91Q144.74-6.62 145.58-5.88 146.42-5.15 147.81-5.15Z" opacity="1" transform="matrix(1,0,0,1,0,0)" fill="#000000" class="wordmark-text-0" data-fill-palette-color="quaternary" id="text-0"></path></svg></g></svg></g></svg></g></svg></g><g transform="matrix(1,0,0,1,0,4.557327747437391)"><svg viewBox="0 0 106.87667376039784 106.74960927048271" height="106.74960927048271" width="106.87667376039784"><g><svg xmlns="http://www.w3.org/2000/svg" xmlns:xlink="http://www.w3.org/1999/xlink" version="1.1" x="0" y="0" viewBox="5 5.053000000000001 90 89.893" enable-background="new 0 0 100 100" xml:space="preserve" height="106.74960927048271" width="106.87667376039784" class="icon-icon-0" data-fill-palette-color="accent" id="icon-0"></svg></g></svg></g></svg></g><defs></defs><mask id="1b6326d7-0fbe-4294-9b9e-bf65a594a747"><g id="SvgjsG1626"><svg viewBox="0 0 395.52 88.57706035436206" height="88.57706035436206" width="395.52"><g><svg viewBox="0 0 517.3645842011443 115.86426476535749" height="88.57706035436206" width="395.52"><g transform="matrix(1,0,0,1,121.84458420114437,0)"><svg viewBox="0 0 395.52 115.86426476535749" height="115.86426476535749" width="395.52"><g id="SvgjsG1625"><svg viewBox="0 0 395.52 115.86426476535749" height="115.86426476535749" width="395.52" id="SvgjsSvg1624"><g><svg viewBox="0 0 395.52 115.86426476535749" height="115.86426476535749" width="395.52"><path d="M394.594 24.851C392.735 12.824 387.435 9.481 387.435 9.481 371.165-2.907 350.86-0.237 332.619 1.543 300.414 1.615 268.339 4.261 236.208 5.68 168.767 5.897 100.749 2.337 33.643 11.116 27.339 13.81-6.54 11.645 1.121 26.39 3.129 32.524 10.456 39.331 10.232 44.959 11.236 45.945 12.631 43.684 13.226 45.104 15.309 48.928 18.711 47.124 21.501 49.385 17.614 55.422 20.403 60.45 23.062 65.717 18.377 67.088 12.371 66.439 9.675 70.985 9.396 74.28 7.89 73.655 6.235 73.511 5.026 73.414 2.59 73.775 2.999 74.809 4.394 78.345-1.594 80.39 2.162 83.854-0.422 87.606 3.948 90.853 3.353 94.918 3.278 95.736 3.687 96.433 4.338 96.626 7.22 97.66 3.018 99.681 3.464 101.869 33.029 116.831 65.104 106.488 95.394 113.367 103.259 108.556 97.346 115.075 100.489 114.065 102.943 112.886 104.728 117.769 107.499 115.003 107.927 114.209 107.276 112.333 108.8 112.693 109.6 112.886 110.307 112.838 110.418 111.731 110.586 110.072 109.117 111.106 108.726 110.24 112.947 105.862 111.906 116.277 115.866 115.844 115.68 114.57 114.528 112.742 116.889 112.982 119.232 111.154 119.306 109.639 121.389 113.752 121.463 114.642 121.835 115.267 122.43 115.7 128.938 111.226 135.409 117.288 142.233 115.267 146.417 113.054 150.433 116.47 154.672 115.628 156.16 114.954 157.666 113.752 159.098 115.772 176.632 116.205 195.319 114.401 211.943 115.844 256.364 113.15 303.836 116.951 350.674 113.391 361.719 112.02 373.192 110.072 383.958 108.508 383.958 108.508 392.679 104.227 392.679 84.984S394.538 68.147 394.817 52.825C395.096 37.503 396.398 36.877 394.538 24.851Z" opacity="1" fill="black"></path><g transform="matrix(1,0,0,1,55.76832,26.230666666666664)"><svg width="283.98335999999995" viewBox="1.17 -35.55 161.61 36.089999999999996" height="63.40293143202416" data-palette-color="#000000"><path d="M29.61 0L1.17 0 1.17-4.64 4.91-5.4 4.91-30.13 1.17-30.88 1.17-35.55 29.17-35.55 29.17-25.61 23.19-25.61 22.92-29.52 12.77-29.52 12.77-21.39 24.44-21.39 24.44-15.36 12.77-15.36 12.77-6.03 23.46-6.03 23.73-10.08 29.61-10.08 29.61 0ZM46.65 0L33.03 0 33.03-4.64 36.28-5.4 36.28-21 32.54-21.75 32.54-26.42 43.65-26.42 43.94-22.68Q45.26-24.68 47.2-25.79 49.14-26.9 51.58-26.9L51.58-26.9Q55.42-26.9 57.6-24.39 59.79-21.88 59.79-16.46L59.79-16.46 59.79-5.4 63.03-4.64 63.03 0 49.14 0 49.14-4.64 51.93-5.4 51.93-16.46Q51.93-18.85 50.96-19.85 50-20.85 48.19-20.85L48.19-20.85Q46.82-20.85 45.82-20.31 44.82-19.78 44.11-18.75L44.11-18.75 44.11-5.4 46.65-4.64 46.65 0ZM76.53 0.51L76.53 0.51Q73.51 0.51 70.88-0.05 68.26-0.61 66.01-1.64L66.01-1.64 65.91-9.5 71.28-9.5 72.24-5.66Q72.92-5.32 73.82-5.08 74.73-4.83 75.92-4.83L75.92-4.83Q78.14-4.83 79.02-5.51 79.9-6.18 79.9-7.18L79.9-7.18Q79.9-8.15 78.94-8.92 77.97-9.69 74.97-10.28L74.97-10.28Q70.31-11.21 68.1-13.33 65.89-15.45 65.89-18.7L65.89-18.7Q65.89-20.9 66.95-22.74 68.01-24.58 70.33-25.72 72.65-26.86 76.36-26.86L76.36-26.86Q79.34-26.86 81.94-26.31 84.54-25.76 86.25-24.9L86.25-24.9 86.27-17.31 80.9-17.31 80.17-20.75Q79.56-21.19 78.77-21.41 77.97-21.63 76.97-21.63L76.97-21.63Q75.21-21.63 74.34-20.96 73.46-20.29 73.46-19.24L73.46-19.24Q73.46-18.63 73.8-18.05 74.14-17.48 75.14-16.98 76.14-16.48 78.1-16.04L78.1-16.04Q82.81-14.99 85.07-13.17 87.32-11.35 87.32-7.84L87.32-7.84Q87.32-4.05 84.59-1.77 81.86 0.51 76.53 0.51ZM101.04 0.54L101.04 0.54Q97.14 0.54 95.06-1.57 92.99-3.69 92.99-8.3L92.99-8.3 92.99-20.95 89.52-20.95 89.52-26.42 92.99-26.42 92.99-32.91 100.77-32.91 100.77-26.42 105.39-26.42 105.39-20.95 100.77-20.95 100.77-8.3Q100.77-6.91 101.4-6.32 102.02-5.74 103.09-5.74L103.09-5.74Q103.61-5.74 104.17-5.8 104.73-5.86 105.19-5.96L105.19-5.96 105.8-0.17Q104.68 0.15 103.47 0.34 102.26 0.54 101.04 0.54ZM117.25 0.51L117.25 0.51Q113.34 0.51 110.99-1.64 108.63-3.78 108.63-7.4L108.63-7.4Q108.63-9.86 109.96-11.77 111.29-13.67 113.95-14.75 116.62-15.82 120.57-15.82L120.57-15.82 123.72-15.82 123.72-17.58Q123.72-19.31 122.71-20.47 121.69-21.63 119.62-21.63L119.62-21.63Q118.62-21.63 117.8-21.37 116.98-21.12 116.32-20.68L116.32-20.68 115.76-17.26 110.17-17.26 110.07-24.34Q112.22-25.44 114.66-26.17 117.1-26.9 120.11-26.9L120.11-26.9Q125.38-26.9 128.47-24.46 131.56-22.02 131.56-17.48L131.56-17.48 131.56-7.18Q131.56-6.62 131.57-6.09 131.58-5.57 131.68-5.08L131.68-5.08 134.46-4.64 134.46 0 125.06 0Q124.77-0.56 124.44-1.32 124.11-2.08 123.99-2.83L123.99-2.83Q122.77-1.29 121.16-0.39 119.55 0.51 117.25 0.51ZM119.5-5.15L119.5-5.15Q120.72-5.15 121.85-5.68 122.99-6.2 123.72-7.13L123.72-7.13 123.72-11.13 120.62-11.13Q118.59-11.13 117.51-10.22 116.42-9.3 116.42-7.91L116.42-7.91Q116.42-6.62 117.26-5.88 118.11-5.15 119.5-5.15ZM145.57 0.51L145.57 0.51Q141.66 0.51 139.31-1.64 136.95-3.78 136.95-7.4L136.95-7.4Q136.95-9.86 138.28-11.77 139.61-13.67 142.27-14.75 144.93-15.82 148.89-15.82L148.89-15.82 152.04-15.82 152.04-17.58Q152.04-19.31 151.03-20.47 150.01-21.63 147.94-21.63L147.94-21.63Q146.94-21.63 146.12-21.37 145.3-21.12 144.64-20.68L144.64-20.68 144.08-17.26 138.49-17.26 138.39-24.34Q140.54-25.44 142.98-26.17 145.42-26.9 148.43-26.9L148.43-26.9Q153.7-26.9 156.79-24.46 159.88-22.02 159.88-17.48L159.88-17.48 159.88-7.18Q159.88-6.62 159.89-6.09 159.9-5.57 160-5.08L160-5.08 162.78-4.64 162.78 0 153.38 0Q153.09-0.56 152.76-1.32 152.43-2.08 152.31-2.83L152.31-2.83Q151.09-1.29 149.47-0.39 147.86 0.51 145.57 0.51ZM147.81-5.15L147.81-5.15Q149.04-5.15 150.17-5.68 151.31-6.2 152.04-7.13L152.04-7.13 152.04-11.13 148.94-11.13Q146.91-11.13 145.82-10.22 144.74-9.3 144.74-7.91L144.74-7.91Q144.74-6.62 145.58-5.88 146.42-5.15 147.81-5.15Z" opacity="1" transform="matrix(1,0,0,1,0,0)" fill="black" class="wordmark-text-0" id="SvgjsPath1623"></path></svg></g></svg></g></svg></g></svg></g><g transform="matrix(1,0,0,1,0,4.557327747437391)"><svg viewBox="0 0 106.87667376039784 106.74960927048271" height="106.74960927048271" width="106.87667376039784"><g><svg xmlns="http://www.w3.org/2000/svg" xmlns:xlink="http://www.w3.org/1999/xlink" version="1.1" x="0" y="0" viewBox="5 5.053000000000001 90 89.893" enable-background="new 0 0 100 100" xml:space="preserve" height="106.74960927048271" width="106.87667376039784" class="icon-icon-0" data-fill-palette-color="accent" id="SvgjsSvg1622"><g fill="white"><path d="M22.749 91.928c0 1.667-1.351 3.018-3.018 3.018H8.018C6.351 94.946 5 93.595 5 91.928V80.215c0-1.667 1.351-3.018 3.018-3.018h11.713c1.667 0 3.018 1.351 3.018 3.018V91.928z" fill="white"></path><path d="M95 65.807c0 4.789-3.882 8.671-8.671 8.671H33.946c-4.789 0-8.671-3.882-8.671-8.671V13.724c0-4.789 3.882-8.671 8.671-8.671h52.383c4.789 0 8.671 3.882 8.671 8.671V65.807zM84.347 17.733c0-1.119-0.907-2.026-2.026-2.026H37.955c-1.119 0-2.026 0.907-2.026 2.026v44.065c0 1.119 0.907 2.026 2.026 2.026h44.366c1.119 0 2.026-0.907 2.026-2.026V17.733z" fill="white"></path></g></svg></g></svg></g></svg></g><defs><mask></mask></defs></svg><rect width="395.52" height="88.57706035436206" fill="black" stroke="none" visibility="hidden"></rect></g></mask><linearGradient x1="0" x2="1" y1="0.578" y2="0.595" id="0cfd7f2e-32ac-400e-8fe2-2b3bdbd357d1"><stop stop-color="#6ee2f5" offset="0"></stop><stop stop-color="#6454f0" offset="1"></stop></linearGradient><rect width="395.52006115919215" height="88.57732120928222" fill="url(#0cfd7f2e-32ac-400e-8fe2-2b3bdbd357d1)" mask="url(#1b6326d7-0fbe-4294-9b9e-bf65a594a747)" data-fill-palette-color="accent"></rect><mask id="b1e626b9-eb8c-4124-afb8-cbe544e0986f"><g id="SvgjsG1636"><svg viewBox="0 0 395.52 88.57706035436206" height="88.57706035436206" width="395.52"><g><svg viewBox="0 0 517.3645842011443 115.86426476535749" height="88.57706035436206" width="395.52"><g transform="matrix(1,0,0,1,121.84458420114437,0)"><svg viewBox="0 0 395.52 115.86426476535749" height="115.86426476535749" width="395.52"><g id="SvgjsG1635"><svg viewBox="0 0 395.52 115.86426476535749" height="115.86426476535749" width="395.52" id="SvgjsSvg1634"><g><svg viewBox="0 0 395.52 115.86426476535749" height="115.86426476535749" width="395.52"><path d="M394.594 24.851C392.735 12.824 387.435 9.481 387.435 9.481 371.165-2.907 350.86-0.237 332.619 1.543 300.414 1.615 268.339 4.261 236.208 5.68 168.767 5.897 100.749 2.337 33.643 11.116 27.339 13.81-6.54 11.645 1.121 26.39 3.129 32.524 10.456 39.331 10.232 44.959 11.236 45.945 12.631 43.684 13.226 45.104 15.309 48.928 18.711 47.124 21.501 49.385 17.614 55.422 20.403 60.45 23.062 65.717 18.377 67.088 12.371 66.439 9.675 70.985 9.396 74.28 7.89 73.655 6.235 73.511 5.026 73.414 2.59 73.775 2.999 74.809 4.394 78.345-1.594 80.39 2.162 83.854-0.422 87.606 3.948 90.853 3.353 94.918 3.278 95.736 3.687 96.433 4.338 96.626 7.22 97.66 3.018 99.681 3.464 101.869 33.029 116.831 65.104 106.488 95.394 113.367 103.259 108.556 97.346 115.075 100.489 114.065 102.943 112.886 104.728 117.769 107.499 115.003 107.927 114.209 107.276 112.333 108.8 112.693 109.6 112.886 110.307 112.838 110.418 111.731 110.586 110.072 109.117 111.106 108.726 110.24 112.947 105.862 111.906 116.277 115.866 115.844 115.68 114.57 114.528 112.742 116.889 112.982 119.232 111.154 119.306 109.639 121.389 113.752 121.463 114.642 121.835 115.267 122.43 115.7 128.938 111.226 135.409 117.288 142.233 115.267 146.417 113.054 150.433 116.47 154.672 115.628 156.16 114.954 157.666 113.752 159.098 115.772 176.632 116.205 195.319 114.401 211.943 115.844 256.364 113.15 303.836 116.951 350.674 113.391 361.719 112.02 373.192 110.072 383.958 108.508 383.958 108.508 392.679 104.227 392.679 84.984S394.538 68.147 394.817 52.825C395.096 37.503 396.398 36.877 394.538 24.851Z" opacity="1" fill="white"></path><g transform="matrix(1,0,0,1,55.76832,26.230666666666664)"><svg width="283.98335999999995" viewBox="1.17 -35.55 161.61 36.089999999999996" height="63.40293143202416" data-palette-color="#000000"><path d="M29.61 0L1.17 0 1.17-4.64 4.91-5.4 4.91-30.13 1.17-30.88 1.17-35.55 29.17-35.55 29.17-25.61 23.19-25.61 22.92-29.52 12.77-29.52 12.77-21.39 24.44-21.39 24.44-15.36 12.77-15.36 12.77-6.03 23.46-6.03 23.73-10.08 29.61-10.08 29.61 0ZM46.65 0L33.03 0 33.03-4.64 36.28-5.4 36.28-21 32.54-21.75 32.54-26.42 43.65-26.42 43.94-22.68Q45.26-24.68 47.2-25.79 49.14-26.9 51.58-26.9L51.58-26.9Q55.42-26.9 57.6-24.39 59.79-21.88 59.79-16.46L59.79-16.46 59.79-5.4 63.03-4.64 63.03 0 49.14 0 49.14-4.64 51.93-5.4 51.93-16.46Q51.93-18.85 50.96-19.85 50-20.85 48.19-20.85L48.19-20.85Q46.82-20.85 45.82-20.31 44.82-19.78 44.11-18.75L44.11-18.75 44.11-5.4 46.65-4.64 46.65 0ZM76.53 0.51L76.53 0.51Q73.51 0.51 70.88-0.05 68.26-0.61 66.01-1.64L66.01-1.64 65.91-9.5 71.28-9.5 72.24-5.66Q72.92-5.32 73.82-5.08 74.73-4.83 75.92-4.83L75.92-4.83Q78.14-4.83 79.02-5.51 79.9-6.18 79.9-7.18L79.9-7.18Q79.9-8.15 78.94-8.92 77.97-9.69 74.97-10.28L74.97-10.28Q70.31-11.21 68.1-13.33 65.89-15.45 65.89-18.7L65.89-18.7Q65.89-20.9 66.95-22.74 68.01-24.58 70.33-25.72 72.65-26.86 76.36-26.86L76.36-26.86Q79.34-26.86 81.94-26.31 84.54-25.76 86.25-24.9L86.25-24.9 86.27-17.31 80.9-17.31 80.17-20.75Q79.56-21.19 78.77-21.41 77.97-21.63 76.97-21.63L76.97-21.63Q75.21-21.63 74.34-20.96 73.46-20.29 73.46-19.24L73.46-19.24Q73.46-18.63 73.8-18.05 74.14-17.48 75.14-16.98 76.14-16.48 78.1-16.04L78.1-16.04Q82.81-14.99 85.07-13.17 87.32-11.35 87.32-7.84L87.32-7.84Q87.32-4.05 84.59-1.77 81.86 0.51 76.53 0.51ZM101.04 0.54L101.04 0.54Q97.14 0.54 95.06-1.57 92.99-3.69 92.99-8.3L92.99-8.3 92.99-20.95 89.52-20.95 89.52-26.42 92.99-26.42 92.99-32.91 100.77-32.91 100.77-26.42 105.39-26.42 105.39-20.95 100.77-20.95 100.77-8.3Q100.77-6.91 101.4-6.32 102.02-5.74 103.09-5.74L103.09-5.74Q103.61-5.74 104.17-5.8 104.73-5.86 105.19-5.96L105.19-5.96 105.8-0.17Q104.68 0.15 103.47 0.34 102.26 0.54 101.04 0.54ZM117.25 0.51L117.25 0.51Q113.34 0.51 110.99-1.64 108.63-3.78 108.63-7.4L108.63-7.4Q108.63-9.86 109.96-11.77 111.29-13.67 113.95-14.75 116.62-15.82 120.57-15.82L120.57-15.82 123.72-15.82 123.72-17.58Q123.72-19.31 122.71-20.47 121.69-21.63 119.62-21.63L119.62-21.63Q118.62-21.63 117.8-21.37 116.98-21.12 116.32-20.68L116.32-20.68 115.76-17.26 110.17-17.26 110.07-24.34Q112.22-25.44 114.66-26.17 117.1-26.9 120.11-26.9L120.11-26.9Q125.38-26.9 128.47-24.46 131.56-22.02 131.56-17.48L131.56-17.48 131.56-7.18Q131.56-6.62 131.57-6.09 131.58-5.57 131.68-5.08L131.68-5.08 134.46-4.64 134.46 0 125.06 0Q124.77-0.56 124.44-1.32 124.11-2.08 123.99-2.83L123.99-2.83Q122.77-1.29 121.16-0.39 119.55 0.51 117.25 0.51ZM119.5-5.15L119.5-5.15Q120.72-5.15 121.85-5.68 122.99-6.2 123.72-7.13L123.72-7.13 123.72-11.13 120.62-11.13Q118.59-11.13 117.51-10.22 116.42-9.3 116.42-7.91L116.42-7.91Q116.42-6.62 117.26-5.88 118.11-5.15 119.5-5.15ZM145.57 0.51L145.57 0.51Q141.66 0.51 139.31-1.64 136.95-3.78 136.95-7.4L136.95-7.4Q136.95-9.86 138.28-11.77 139.61-13.67 142.27-14.75 144.93-15.82 148.89-15.82L148.89-15.82 152.04-15.82 152.04-17.58Q152.04-19.31 151.03-20.47 150.01-21.63 147.94-21.63L147.94-21.63Q146.94-21.63 146.12-21.37 145.3-21.12 144.64-20.68L144.64-20.68 144.08-17.26 138.49-17.26 138.39-24.34Q140.54-25.44 142.98-26.17 145.42-26.9 148.43-26.9L148.43-26.9Q153.7-26.9 156.79-24.46 159.88-22.02 159.88-17.48L159.88-17.48 159.88-7.18Q159.88-6.62 159.89-6.09 159.9-5.57 160-5.08L160-5.08 162.78-4.64 162.78 0 153.38 0Q153.09-0.56 152.76-1.32 152.43-2.08 152.31-2.83L152.31-2.83Q151.09-1.29 149.47-0.39 147.86 0.51 145.57 0.51ZM147.81-5.15L147.81-5.15Q149.04-5.15 150.17-5.68 151.31-6.2 152.04-7.13L152.04-7.13 152.04-11.13 148.94-11.13Q146.91-11.13 145.82-10.22 144.74-9.3 144.74-7.91L144.74-7.91Q144.74-6.62 145.58-5.88 146.42-5.15 147.81-5.15Z" opacity="1" transform="matrix(1,0,0,1,0,0)" fill="black" class="wordmark-text-0" id="SvgjsPath1633"></path></svg></g></svg></g></svg></g></svg></g><g transform="matrix(1,0,0,1,0,4.557327747437391)"><svg viewBox="0 0 106.87667376039784 106.74960927048271" height="106.74960927048271" width="106.87667376039784"><g><svg xmlns="http://www.w3.org/2000/svg" xmlns:xlink="http://www.w3.org/1999/xlink" version="1.1" x="0" y="0" viewBox="5 5.053000000000001 90 89.893" enable-background="new 0 0 100 100" xml:space="preserve" height="106.74960927048271" width="106.87667376039784" class="icon-icon-0" data-fill-palette-color="accent" id="SvgjsSvg1632"></svg></g></svg></g></svg></g><defs><mask></mask></defs><mask><g id="SvgjsG1631"><svg viewBox="0 0 395.52 88.57706035436206" height="88.57706035436206" width="395.52"><g><svg viewBox="0 0 517.3645842011443 115.86426476535749" height="88.57706035436206" width="395.52"><g transform="matrix(1,0,0,1,121.84458420114437,0)"><svg viewBox="0 0 395.52 115.86426476535749" height="115.86426476535749" width="395.52"><g id="SvgjsG1630"><svg viewBox="0 0 395.52 115.86426476535749" height="115.86426476535749" width="395.52" id="SvgjsSvg1629"><g><svg viewBox="0 0 395.52 115.86426476535749" height="115.86426476535749" width="395.52"><path d="M394.594 24.851C392.735 12.824 387.435 9.481 387.435 9.481 371.165-2.907 350.86-0.237 332.619 1.543 300.414 1.615 268.339 4.261 236.208 5.68 168.767 5.897 100.749 2.337 33.643 11.116 27.339 13.81-6.54 11.645 1.121 26.39 3.129 32.524 10.456 39.331 10.232 44.959 11.236 45.945 12.631 43.684 13.226 45.104 15.309 48.928 18.711 47.124 21.501 49.385 17.614 55.422 20.403 60.45 23.062 65.717 18.377 67.088 12.371 66.439 9.675 70.985 9.396 74.28 7.89 73.655 6.235 73.511 5.026 73.414 2.59 73.775 2.999 74.809 4.394 78.345-1.594 80.39 2.162 83.854-0.422 87.606 3.948 90.853 3.353 94.918 3.278 95.736 3.687 96.433 4.338 96.626 7.22 97.66 3.018 99.681 3.464 101.869 33.029 116.831 65.104 106.488 95.394 113.367 103.259 108.556 97.346 115.075 100.489 114.065 102.943 112.886 104.728 117.769 107.499 115.003 107.927 114.209 107.276 112.333 108.8 112.693 109.6 112.886 110.307 112.838 110.418 111.731 110.586 110.072 109.117 111.106 108.726 110.24 112.947 105.862 111.906 116.277 115.866 115.844 115.68 114.57 114.528 112.742 116.889 112.982 119.232 111.154 119.306 109.639 121.389 113.752 121.463 114.642 121.835 115.267 122.43 115.7 128.938 111.226 135.409 117.288 142.233 115.267 146.417 113.054 150.433 116.47 154.672 115.628 156.16 114.954 157.666 113.752 159.098 115.772 176.632 116.205 195.319 114.401 211.943 115.844 256.364 113.15 303.836 116.951 350.674 113.391 361.719 112.02 373.192 110.072 383.958 108.508 383.958 108.508 392.679 104.227 392.679 84.984S394.538 68.147 394.817 52.825C395.096 37.503 396.398 36.877 394.538 24.851Z" opacity="1" fill="black"></path><g transform="matrix(1,0,0,1,55.76832,26.230666666666664)"><svg width="283.98335999999995" viewBox="1.17 -35.55 161.61 36.089999999999996" height="63.40293143202416" data-palette-color="#000000"><path d="M29.61 0L1.17 0 1.17-4.64 4.91-5.4 4.91-30.13 1.17-30.88 1.17-35.55 29.17-35.55 29.17-25.61 23.19-25.61 22.92-29.52 12.77-29.52 12.77-21.39 24.44-21.39 24.44-15.36 12.77-15.36 12.77-6.03 23.46-6.03 23.73-10.08 29.61-10.08 29.61 0ZM46.65 0L33.03 0 33.03-4.64 36.28-5.4 36.28-21 32.54-21.75 32.54-26.42 43.65-26.42 43.94-22.68Q45.26-24.68 47.2-25.79 49.14-26.9 51.58-26.9L51.58-26.9Q55.42-26.9 57.6-24.39 59.79-21.88 59.79-16.46L59.79-16.46 59.79-5.4 63.03-4.64 63.03 0 49.14 0 49.14-4.64 51.93-5.4 51.93-16.46Q51.93-18.85 50.96-19.85 50-20.85 48.19-20.85L48.19-20.85Q46.82-20.85 45.82-20.31 44.82-19.78 44.11-18.75L44.11-18.75 44.11-5.4 46.65-4.64 46.65 0ZM76.53 0.51L76.53 0.51Q73.51 0.51 70.88-0.05 68.26-0.61 66.01-1.64L66.01-1.64 65.91-9.5 71.28-9.5 72.24-5.66Q72.92-5.32 73.82-5.08 74.73-4.83 75.92-4.83L75.92-4.83Q78.14-4.83 79.02-5.51 79.9-6.18 79.9-7.18L79.9-7.18Q79.9-8.15 78.94-8.92 77.97-9.69 74.97-10.28L74.97-10.28Q70.31-11.21 68.1-13.33 65.89-15.45 65.89-18.7L65.89-18.7Q65.89-20.9 66.95-22.74 68.01-24.58 70.33-25.72 72.65-26.86 76.36-26.86L76.36-26.86Q79.34-26.86 81.94-26.31 84.54-25.76 86.25-24.9L86.25-24.9 86.27-17.31 80.9-17.31 80.17-20.75Q79.56-21.19 78.77-21.41 77.97-21.63 76.97-21.63L76.97-21.63Q75.21-21.63 74.34-20.96 73.46-20.29 73.46-19.24L73.46-19.24Q73.46-18.63 73.8-18.05 74.14-17.48 75.14-16.98 76.14-16.48 78.1-16.04L78.1-16.04Q82.81-14.99 85.07-13.17 87.32-11.35 87.32-7.84L87.32-7.84Q87.32-4.05 84.59-1.77 81.86 0.51 76.53 0.51ZM101.04 0.54L101.04 0.54Q97.14 0.54 95.06-1.57 92.99-3.69 92.99-8.3L92.99-8.3 92.99-20.95 89.52-20.95 89.52-26.42 92.99-26.42 92.99-32.91 100.77-32.91 100.77-26.42 105.39-26.42 105.39-20.95 100.77-20.95 100.77-8.3Q100.77-6.91 101.4-6.32 102.02-5.74 103.09-5.74L103.09-5.74Q103.61-5.74 104.17-5.8 104.73-5.86 105.19-5.96L105.19-5.96 105.8-0.17Q104.68 0.15 103.47 0.34 102.26 0.54 101.04 0.54ZM117.25 0.51L117.25 0.51Q113.34 0.51 110.99-1.64 108.63-3.78 108.63-7.4L108.63-7.4Q108.63-9.86 109.96-11.77 111.29-13.67 113.95-14.75 116.62-15.82 120.57-15.82L120.57-15.82 123.72-15.82 123.72-17.58Q123.72-19.31 122.71-20.47 121.69-21.63 119.62-21.63L119.62-21.63Q118.62-21.63 117.8-21.37 116.98-21.12 116.32-20.68L116.32-20.68 115.76-17.26 110.17-17.26 110.07-24.34Q112.22-25.44 114.66-26.17 117.1-26.9 120.11-26.9L120.11-26.9Q125.38-26.9 128.47-24.46 131.56-22.02 131.56-17.48L131.56-17.48 131.56-7.18Q131.56-6.62 131.57-6.09 131.58-5.57 131.68-5.08L131.68-5.08 134.46-4.64 134.46 0 125.06 0Q124.77-0.56 124.44-1.32 124.11-2.08 123.99-2.83L123.99-2.83Q122.77-1.29 121.16-0.39 119.55 0.51 117.25 0.51ZM119.5-5.15L119.5-5.15Q120.72-5.15 121.85-5.68 122.99-6.2 123.72-7.13L123.72-7.13 123.72-11.13 120.62-11.13Q118.59-11.13 117.51-10.22 116.42-9.3 116.42-7.91L116.42-7.91Q116.42-6.62 117.26-5.88 118.11-5.15 119.5-5.15ZM145.57 0.51L145.57 0.51Q141.66 0.51 139.31-1.64 136.95-3.78 136.95-7.4L136.95-7.4Q136.95-9.86 138.28-11.77 139.61-13.67 142.27-14.75 144.93-15.82 148.89-15.82L148.89-15.82 152.04-15.82 152.04-17.58Q152.04-19.31 151.03-20.47 150.01-21.63 147.94-21.63L147.94-21.63Q146.94-21.63 146.12-21.37 145.3-21.12 144.64-20.68L144.64-20.68 144.08-17.26 138.49-17.26 138.39-24.34Q140.54-25.44 142.98-26.17 145.42-26.9 148.43-26.9L148.43-26.9Q153.7-26.9 156.79-24.46 159.88-22.02 159.88-17.48L159.88-17.48 159.88-7.18Q159.88-6.62 159.89-6.09 159.9-5.57 160-5.08L160-5.08 162.78-4.64 162.78 0 153.38 0Q153.09-0.56 152.76-1.32 152.43-2.08 152.31-2.83L152.31-2.83Q151.09-1.29 149.47-0.39 147.86 0.51 145.57 0.51ZM147.81-5.15L147.81-5.15Q149.04-5.15 150.17-5.68 151.31-6.2 152.04-7.13L152.04-7.13 152.04-11.13 148.94-11.13Q146.91-11.13 145.82-10.22 144.74-9.3 144.74-7.91L144.74-7.91Q144.74-6.62 145.58-5.88 146.42-5.15 147.81-5.15Z" opacity="1" transform="matrix(1,0,0,1,0,0)" fill="black" class="wordmark-text-0" id="SvgjsPath1628"></path></svg></g></svg></g></svg></g></svg></g><g transform="matrix(1,0,0,1,0,4.557327747437391)"><svg viewBox="0 0 106.87667376039784 106.74960927048271" height="106.74960927048271" width="106.87667376039784"><g><svg xmlns="http://www.w3.org/2000/svg" xmlns:xlink="http://www.w3.org/1999/xlink" version="1.1" x="0" y="0" viewBox="5 5.053000000000001 90 89.893" enable-background="new 0 0 100 100" xml:space="preserve" height="106.74960927048271" width="106.87667376039784" class="icon-icon-0" data-fill-palette-color="accent" id="SvgjsSvg1627"><g fill="black"><path d="M22.749 91.928c0 1.667-1.351 3.018-3.018 3.018H8.018C6.351 94.946 5 93.595 5 91.928V80.215c0-1.667 1.351-3.018 3.018-3.018h11.713c1.667 0 3.018 1.351 3.018 3.018V91.928z" fill="black"></path><path d="M95 65.807c0 4.789-3.882 8.671-8.671 8.671H33.946c-4.789 0-8.671-3.882-8.671-8.671V13.724c0-4.789 3.882-8.671 8.671-8.671h52.383c4.789 0 8.671 3.882 8.671 8.671V65.807zM84.347 17.733c0-1.119-0.907-2.026-2.026-2.026H37.955c-1.119 0-2.026 0.907-2.026 2.026v44.065c0 1.119 0.907 2.026 2.026 2.026h44.366c1.119 0 2.026-0.907 2.026-2.026V17.733z" fill="black"></path></g></svg></g></svg></g></svg></g><defs><mask></mask></defs></svg><rect width="395.52" height="88.57706035436206" fill="black" stroke="none" visibility="hidden"></rect></g></mask></svg><rect width="395.52" height="88.57706035436206" fill="black" stroke="none" visibility="hidden"></rect></g></mask><linearGradient x1="0" x2="1" y1="0.578" y2="0.595" id="8bc20a81-c08c-4de0-bf83-1db4656e6e2c"><stop stop-color="#6ee2f5" offset="0"></stop><stop stop-color="#6454f0" offset="1"></stop></linearGradient></svg><rect width="395.52" height="88.57706035436206" fill="none" stroke="none" visibility="hidden"></rect></g></svg></g></svg>